<svg version="1.1" viewBox="0.0 0.0 960.0 720.0" fill="none" stroke="none" stroke-linecap="square" stroke-miterlimit="10" xmlns:xlink="http://www.w3.org/1999/xlink" xmlns="http://www.w3.org/2000/svg"><clipPath id="p.0"><path d="m0 0l960.0 0l0 720.0l-960.0 0l0 -720.0z" clip-rule="nonzero"/></clipPath><g clip-path="url(#p.0)"><path fill="#000000" fill-opacity="0.0" d="m0 0l960.0 0l0 720.0l-960.0 0z" fill-rule="evenodd"/><path fill="#000000" fill-opacity="0.0" d="m0 0l339.3701 0l0 281.6378l-339.3701 0z" fill-rule="evenodd"/><path fill="#0b5394" d="m104.796875 137.42188q4.40625 4.890625 6.5 10.703125q2.09375 5.796875 2.09375 13.515625q0 18.359375 -13.578125 30.28125q-13.5625 11.90625 -33.6875 11.90625q-9.265625 0 -18.546875 -2.875q-9.28125 -2.890625 -16.015625 -6.984375l-4.203125 7.125l-7.8125 0l-1.359375 -47.453125l7.90625 0q2.4375 8.78125 5.703125 15.859375q3.28125 7.078125 8.65625 13.234375q5.078125 5.765625 11.859375 9.1875q6.78125 3.40625 15.765625 3.40625q6.75 0 11.765625 -1.75q5.03125 -1.765625 8.15625 -4.984375q3.125 -3.21875 4.640625 -7.5625q1.515625 -4.34375 1.515625 -10.015625q0 -8.296875 -4.6875 -15.46875q-4.6875 -7.1875 -13.96875 -10.890625q-6.34375 -2.546875 -14.546875 -5.625q-8.203125 -3.078125 -14.15625 -5.8125q-11.71875 -5.265625 -18.21875 -13.8125q-6.484375 -8.546875 -6.484375 -22.3125q0 -7.90625 3.21875 -14.734375q3.21875 -6.84375 9.171875 -12.21875q5.671875 -5.078125 13.375 -7.953125q7.71875 -2.890625 16.125 -2.890625q9.5625 0 17.125 2.9375q7.578125 2.921875 13.828125 6.828125l4.0 -6.640625l7.8125 0l0.78125 46.0l-7.90625 0q-2.140625 -7.90625 -4.828125 -15.125q-2.6875 -7.234375 -6.984375 -13.09375q-4.203125 -5.671875 -10.265625 -9.03125q-6.046875 -3.375 -14.828125 -3.375q-9.28125 0 -15.828125 5.953125q-6.546875 5.953125 -6.546875 14.546875q0 8.984375 4.203125 14.90625q4.203125 5.90625 12.203125 9.703125q7.140625 3.421875 14.015625 5.921875q6.890625 2.484375 13.328125 5.3125q5.859375 2.546875 11.28125 5.765625q5.421875 3.21875 9.421875 7.515625zm124.22266 -0.96875q6.0625 4.09375 10.0625 10.734375q4.0 6.640625 4.0 16.109375q0 9.671875 -4.203125 16.8125q-4.1875 7.125 -10.9375 11.703125q-6.53125 4.5 -14.796875 6.84375q-8.25 2.34375 -17.03125 2.34375l-65.625 0l0 -6.9375q2.34375 -0.1875 6.828125 -0.828125q4.5 -0.640625 6.453125 -1.515625q3.03125 -1.359375 4.296875 -3.65625q1.265625 -2.296875 1.265625 -5.90625l0 -99.609375q0 -3.328125 -1.125 -5.859375q-1.125 -2.546875 -4.4375 -4.109375q-2.9375 -1.46875 -6.546875 -2.25q-3.609375 -0.78125 -6.046875 -0.96875l0 -6.9375l63.953125 0q7.421875 0 14.203125 1.46875q6.796875 1.46875 12.953125 5.171875q5.765625 3.421875 9.46875 9.28125q3.71875 5.859375 3.71875 14.25q0 7.328125 -2.640625 13.046875q-2.640625 5.703125 -7.421875 9.8125q-4.5 3.90625 -10.3125 6.59375q-5.796875 2.6875 -12.546875 4.140625l0 0.890625q5.96875 0.671875 13.328125 2.96875q7.375 2.296875 13.140625 6.40625zm-23.53125 -20.90625q3.609375 -4.203125 5.015625 -9.171875q1.421875 -4.984375 1.421875 -11.828125q0 -11.421875 -6.25 -17.90625q-6.25 -6.5 -19.71875 -6.5q-3.125 0 -7.859375 0.15625q-4.734375 0.140625 -7.96875 0.234375l0 53.21875l12.40625 0q8.015625 0 13.71875 -2.046875q5.71875 -2.046875 9.234375 -6.15625zm13.46875 44.234375q0 -12.296875 -8.25 -20.203125q-8.25 -7.921875 -23.578125 -7.921875q-6.25 0 -10.546875 0.15625q-4.296875 0.140625 -6.453125 0.234375l0 48.828125q0 6.15625 4.984375 9.28125q4.984375 3.125 13.875 3.125q14.546875 0 22.25 -8.484375q7.71875 -8.5 7.71875 -25.015625z" fill-rule="nonzero"/></g></svg>